<svg width="16" height="16" viewBox="0 0 16 16" fill="none" xmlns="http://www.w3.org/2000/svg">
<path d="M5.88125 11.5375C5.16875 13.6563 2.34375 13.6563 2.34375 13.6563C2.34375 13.6563 2.34375 10.8313 4.4625 10.1188" stroke="white" stroke-linecap="round" stroke-linejoin="round"/>
<path d="M12.2438 6.58755L8.00001 10.8313L5.16876 8.00005L9.41251 3.7563C11.0188 2.15005 12.625 2.1688 13.3125 2.2688C13.4186 2.28295 13.5171 2.33162 13.5928 2.4073C13.6684 2.48298 13.7171 2.58146 13.7313 2.68755C13.8313 3.37505 13.85 4.9813 12.2438 6.58755Z" stroke="white" stroke-linecap="round" stroke-linejoin="round"/>
<path d="M11.5375 7.2937V11.3312C11.5356 11.4631 11.4817 11.5889 11.3875 11.6812L9.36875 13.7062C9.3047 13.7702 9.22449 13.8156 9.13667 13.8375C9.04885 13.8595 8.95672 13.8572 8.8701 13.8309C8.78349 13.8046 8.70563 13.7552 8.64486 13.6881C8.58408 13.6211 8.54265 13.5387 8.525 13.45L8 10.8312" stroke="white" stroke-linecap="round" stroke-linejoin="round"/>
<path d="M8.70627 4.46252H4.66876C4.53688 4.4644 4.41108 4.51832 4.31876 4.61252L2.29377 6.63127C2.22979 6.69532 2.18441 6.77553 2.16245 6.86335C2.1405 6.95117 2.14279 7.04331 2.1691 7.12992C2.19541 7.21654 2.24473 7.29439 2.31182 7.35517C2.3789 7.41595 2.46123 7.45737 2.55002 7.47502L5.16876 8.00002" stroke="white" stroke-linecap="round" stroke-linejoin="round"/>
</svg>
